# xmcd CD database file
#
# Track frame offsets:
#	150
#	17967
#	32975
#	50790
#	67857
#	80940
#	94985
#	108297
#	123157
#	134025
#	147047
#	162752
#	180472
#	192375
#	205285
#	219760
#	237102
#	253972
#	271190
#	285965
#
# Disc length: 4044 seconds
#
# Revision: 4
# Processed by: cddbd v1.5.2PL0 Copyright (c) Steve Scherf et al.
# Submitted via: CDex 1.51
#
DISCID=270fca14
DTITLE=Alan Jackson - Grandes Sucessos
DYEAR=1999
DGENRE=Country
TTITLE0=I'II Go On Loving You (Vou seguir te amando) - com Leonardo
TTITLE1=Thank God For The Radio
TTITLE2=Chattahoochee
TTITLE3=Right On The Money
TTITLE4=Just Playin' Possum
TTITLE5=Everything I Love
TTITLE6=Wanted
TTITLE7=Someday
TTITLE8=She's Got The Rhythm (And I Got The Blues)
TTITLE9=Honky Tonk Christmas
TTITLE10=You Can't Have It All (Who Says)
TTITLE11=There Goes
TTITLE12=Little Bitty
TTITLE13=Dont Rock The Jukebox
TTITLE14=Summertime Blues
TTITLE15=Gone Crazy
TTITLE16=Midnight In Montgomery
TTITLE17=Livin' On love
TTITLE18=I Don't Need The Booze (To Get A Buzz On)
TTITLE19=I'lI Try
EXTD=YEAR: 1999
EXTT0=
EXTT1=
EXTT2=
EXTT3=
EXTT4=
EXTT5=
EXTT6=
EXTT7=
EXTT8=
EXTT9=
EXTT10=
EXTT11=
EXTT12=
EXTT13=
EXTT14=
EXTT15=
EXTT16=
EXTT17=
EXTT18=
EXTT19=
PLAYORDER=
